<svg width="10" height="10" viewBox="0 0 10 10" fill="none" xmlns="http://www.w3.org/2000/svg">
<g clip-path="url(#clip0)">
<path d="M5.3902 7.77781L9.84025 3.32768C9.94325 3.22476 10 3.08736 10 2.94086C10 2.79435 9.94325 2.65696 9.84025 2.55403L9.51261 2.22631C9.29911 2.01306 8.95212 2.01306 8.73895 2.22631L5.00207 5.96319L1.26105 2.22216C1.15804 2.11924 1.02072 2.06241 0.874302 2.06241C0.727718 2.06241 0.590402 2.11924 0.487313 2.22216L0.159755 2.54988C0.0567474 2.65289 9.21861e-07 2.79021 9.15457e-07 2.93671C9.09054e-07 3.08321 0.0567474 3.22061 0.159755 3.32354L4.61387 7.77781C4.7172 7.88098 4.85516 7.93764 5.00183 7.93732C5.14906 7.93764 5.28695 7.88098 5.3902 7.77781Z" fill="#A29ECD"/>
</g>
<defs>
<clipPath id="clip0">
<rect width="10" height="10" fill="white" transform="translate(10) rotate(90)"/>
</clipPath>
</defs>
</svg>
