<svg width="139" height="60" viewBox="0 0 139 60" fill="none" xmlns="http://www.w3.org/2000/svg">
<path d="M54.604 15.984H49.024V20.07H54.37V21.654H49.024V27H47.35V14.4H54.604V15.984ZM64.0653 25.866C63.1413 26.778 62.0193 27.234 60.6993 27.234C59.3793 27.234 58.2573 26.778 57.3333 25.866C56.4213 24.954 55.9653 23.832 55.9653 22.5C55.9653 21.168 56.4213 20.046 57.3333 19.134C58.2573 18.222 59.3793 17.766 60.6993 17.766C62.0193 17.766 63.1413 18.222 64.0653 19.134C64.9893 20.046 65.4512 21.168 65.4512 22.5C65.4512 23.832 64.9893 24.954 64.0653 25.866ZM60.6993 25.704C61.5993 25.704 62.3553 25.398 62.9673 24.786C63.5793 24.174 63.8853 23.412 63.8853 22.5C63.8853 21.588 63.5793 20.826 62.9673 20.214C62.3553 19.602 61.5993 19.296 60.6993 19.296C59.8113 19.296 59.0613 19.602 58.4493 20.214C57.8373 20.826 57.5312 21.588 57.5312 22.5C57.5312 23.412 57.8373 24.174 58.4493 24.786C59.0613 25.398 59.8113 25.704 60.6993 25.704ZM71.7794 17.766C72.8354 17.766 73.6814 18.102 74.3174 18.774C74.9534 19.434 75.2714 20.334 75.2714 21.474V27H73.7054V21.564C73.7054 20.832 73.5074 20.268 73.1114 19.872C72.7154 19.464 72.1694 19.26 71.4734 19.26C70.6934 19.26 70.0634 19.506 69.5834 19.998C69.1034 20.478 68.8634 21.222 68.8634 22.23V27H67.2974V18H68.8634V19.296C69.4994 18.276 70.4714 17.766 71.7794 17.766ZM84.9095 14.4H86.4755V27H84.9095V25.452C84.1295 26.64 82.9955 27.234 81.5075 27.234C80.2475 27.234 79.1735 26.778 78.2855 25.866C77.3975 24.942 76.9535 23.82 76.9535 22.5C76.9535 21.18 77.3975 20.064 78.2855 19.152C79.1735 18.228 80.2475 17.766 81.5075 17.766C82.9955 17.766 84.1295 18.36 84.9095 19.548V14.4ZM81.7055 25.722C82.6175 25.722 83.3795 25.416 83.9915 24.804C84.6035 24.18 84.9095 23.412 84.9095 22.5C84.9095 21.588 84.6035 20.826 83.9915 20.214C83.3795 19.59 82.6175 19.278 81.7055 19.278C80.8055 19.278 80.0495 19.59 79.4375 20.214C78.8255 20.826 78.5195 21.588 78.5195 22.5C78.5195 23.412 78.8255 24.18 79.4375 24.804C80.0495 25.416 80.8055 25.722 81.7055 25.722Z" fill="white"/>
<path d="M98.5142 17.784C99.5222 17.784 100.332 18.108 100.944 18.756C101.568 19.404 101.88 20.28 101.88 21.384V27H100.692V21.384C100.692 20.604 100.488 20.004 100.08 19.584C99.6842 19.152 99.1562 18.936 98.4962 18.936C97.7522 18.936 97.1462 19.188 96.6782 19.692C96.2222 20.184 95.9942 20.958 95.9942 22.014V27H94.8062V21.384C94.8062 20.592 94.6142 19.986 94.2302 19.566C93.8582 19.146 93.3482 18.936 92.7002 18.936C91.9802 18.936 91.3682 19.188 90.8642 19.692C90.3602 20.196 90.1082 20.97 90.1082 22.014V27H88.9202V18H90.1082V19.314C90.7562 18.294 91.6742 17.784 92.8622 17.784C94.1582 17.784 95.0702 18.33 95.5982 19.422C96.2462 18.33 97.2182 17.784 98.5142 17.784ZM111.918 18H113.106V27H111.918V25.236C111.09 26.556 109.878 27.216 108.282 27.216C106.998 27.216 105.9 26.76 104.988 25.848C104.088 24.936 103.638 23.82 103.638 22.5C103.638 21.18 104.088 20.064 104.988 19.152C105.9 18.24 106.998 17.784 108.282 17.784C109.878 17.784 111.09 18.444 111.918 19.764V18ZM105.852 25.038C106.536 25.722 107.376 26.064 108.372 26.064C109.368 26.064 110.208 25.722 110.892 25.038C111.576 24.342 111.918 23.496 111.918 22.5C111.918 21.504 111.576 20.664 110.892 19.98C110.208 19.284 109.368 18.936 108.372 18.936C107.376 18.936 106.536 19.284 105.852 19.98C105.168 20.664 104.826 21.504 104.826 22.5C104.826 23.496 105.168 24.342 105.852 25.038ZM122.893 27H121.309L116.809 22.662V27H115.621V14.4H116.809V21.978L121.093 18H122.713L118.069 22.32L122.893 27ZM127.777 17.784C129.109 17.784 130.183 18.258 130.999 19.206C131.827 20.142 132.241 21.252 132.241 22.536C132.241 22.668 132.229 22.854 132.205 23.094H124.303C124.423 24.006 124.807 24.732 125.455 25.272C126.115 25.8 126.925 26.064 127.885 26.064C128.569 26.064 129.157 25.926 129.649 25.65C130.153 25.362 130.531 24.99 130.783 24.534L131.827 25.146C131.431 25.782 130.891 26.286 130.207 26.658C129.523 27.03 128.743 27.216 127.867 27.216C126.451 27.216 125.299 26.772 124.411 25.884C123.523 24.996 123.079 23.868 123.079 22.5C123.079 21.156 123.517 20.034 124.393 19.134C125.269 18.234 126.397 17.784 127.777 17.784ZM127.777 18.936C126.841 18.936 126.055 19.218 125.419 19.782C124.795 20.334 124.423 21.054 124.303 21.942H131.017C130.897 20.994 130.531 20.256 129.919 19.728C129.307 19.2 128.593 18.936 127.777 18.936ZM135.319 19.494C135.871 18.402 136.819 17.856 138.163 17.856V19.008C137.347 19.008 136.669 19.248 136.129 19.728C135.589 20.208 135.319 20.964 135.319 21.996V27H134.131V18H135.319V19.494Z" fill="#686594"/>
<g filter="url(#filter0_d)">
<rect x="25" y="19.5" width="8.66664" height="8.66664" rx="1" fill="url(#paint0_linear)"/>
</g>
<g filter="url(#filter1_d)">
<circle cx="34.2082" cy="17.8749" r="3.79166" stroke="white"/>
</g>
<defs>
<filter id="filter0_d" x="0" y="0.5" width="58.6666" height="58.6666" filterUnits="userSpaceOnUse" color-interpolation-filters="sRGB">
<feFlood flood-opacity="0" result="BackgroundImageFix"/>
<feColorMatrix in="SourceAlpha" type="matrix" values="0 0 0 0 0 0 0 0 0 0 0 0 0 0 0 0 0 0 127 0"/>
<feOffset dy="6"/>
<feGaussianBlur stdDeviation="12.5"/>
<feColorMatrix type="matrix" values="0 0 0 0 0.602048 0 0 0 0 0.949963 0 0 0 0 0.930168 0 0 0 0.355129 0"/>
<feBlend mode="normal" in2="BackgroundImageFix" result="effect1_dropShadow"/>
<feBlend mode="normal" in="SourceGraphic" in2="effect1_dropShadow" result="shape"/>
</filter>
<filter id="filter1_d" x="20.9165" y="10.5833" width="26.5833" height="26.5833" filterUnits="userSpaceOnUse" color-interpolation-filters="sRGB">
<feFlood flood-opacity="0" result="BackgroundImageFix"/>
<feColorMatrix in="SourceAlpha" type="matrix" values="0 0 0 0 0 0 0 0 0 0 0 0 0 0 0 0 0 0 127 0"/>
<feOffset dy="6"/>
<feGaussianBlur stdDeviation="4.5"/>
<feColorMatrix type="matrix" values="0 0 0 0 0.0944005 0 0 0 0 0.0811398 0 0 0 0 0.223693 0 0 0 1 0"/>
<feBlend mode="normal" in2="BackgroundImageFix" result="effect1_dropShadow"/>
<feBlend mode="normal" in="SourceGraphic" in2="effect1_dropShadow" result="shape"/>
</filter>
<linearGradient id="paint0_linear" x1="30.4167" y1="17.875" x2="25" y2="29.25" gradientUnits="userSpaceOnUse">
<stop stop-color="#86E3FF"/>
<stop offset="1" stop-color="#23EAA4"/>
</linearGradient>
</defs>
</svg>
