<svg width="24" height="24" viewBox="0 0 24 24" fill="none" xmlns="http://www.w3.org/2000/svg">
<g clip-path="url(#clip0)">
<path d="M21.3371 2.6596C20.9943 2.31187 20.4359 2.31677 20.0882 2.6596L16.9537 5.79408C13.0699 4.03093 8.92651 4.46192 4.97413 7.04297C2.03066 8.96284 0.243028 11.3774 0.169563 11.4802C-0.0655226 11.8035 -0.0557274 12.2442 0.194051 12.5577C1.86904 14.6147 3.62239 16.2162 5.41492 17.3329L2.65756 20.0902C2.31472 20.4331 2.31472 20.9914 2.65756 21.3391C2.82897 21.5105 3.05426 21.5987 3.27955 21.5987C3.50484 21.5987 3.73013 21.5105 3.90155 21.3391L21.3371 3.90849C21.6799 3.56566 21.6799 3.00733 21.3371 2.6596ZM9.81788 12.9299C9.69054 12.6409 9.62687 12.3275 9.62687 11.9994C9.62687 11.3676 9.87175 10.7701 10.3223 10.3195C11.0276 9.61422 12.0708 9.4477 12.9328 9.81502L9.81788 12.9299ZM14.2355 8.51715C12.634 7.48865 10.4742 7.67476 9.07834 9.07058C8.29472 9.8542 7.86863 10.8925 7.86863 11.9945C7.86863 12.7977 8.09881 13.5666 8.52491 14.2278L6.70789 16.0448C5.11616 15.124 3.54892 13.7625 2.02576 11.9847C2.67715 11.2206 4.05338 9.74645 5.93896 8.51715C9.20078 6.39158 12.4479 5.93121 15.6118 7.14092L14.2355 8.51715Z" fill="#fff"/>
<path d="M23.8054 11.4412C22.5957 9.95235 21.3419 8.69856 20.0685 7.70435C19.6816 7.40559 19.1282 7.47416 18.8246 7.85617C18.5258 8.23819 18.5944 8.79162 18.9764 9.09527C19.9853 9.88378 20.9942 10.8633 21.9737 12.0093C21.3958 12.6852 20.2693 13.8998 18.7413 15.0116C15.7978 17.1518 12.825 17.9257 9.91088 17.3086C9.43582 17.2057 8.96564 17.5143 8.86769 17.9893C8.76484 18.4644 9.07339 18.9346 9.54846 19.0325C10.3076 19.1941 11.0716 19.2725 11.8405 19.2725C12.9964 19.2725 14.162 19.0913 15.3228 18.7289C16.8459 18.2538 18.3593 17.4702 19.8237 16.4025C22.2921 14.5953 23.7662 12.602 23.8299 12.5187C24.065 12.1955 24.0552 11.7547 23.8054 11.4412Z" fill="#fff"/>
</g>
<defs>
<clipPath id="clip0">
<rect width="24" height="24" fill="white" transform="translate(-0.000244141 -0.000244141)"/>
</clipPath>
</defs>
</svg>
