<svg width="16" height="10" viewBox="0 0 16 10" fill="none" xmlns="http://www.w3.org/2000/svg">
<path d="M5.71712 0H12C11.9962 0.0798641 11.9675 0.15678 11.9176 0.220757C11.7049 0.571312 11.5135 0.936175 11.3045 1.28673C11.0089 1.79008 10.7324 2.30262 10.4319 2.80392C10.2416 3.1647 10.0268 3.51423 9.82364 3.86887C8.6028 3.86887 7.38196 3.86887 6.16111 3.86887C6.09731 3.86887 6.03403 3.87194 5.97022 3.87552C5.91705 4.01043 5.82878 4.12847 5.75753 4.2552C5.66448 4.40033 5.58898 4.55516 5.49699 4.70029C5.39968 4.8955 5.26515 5.07026 5.16732 5.26496C4.96526 5.59456 4.7765 5.92928 4.5787 6.26246C4.37239 6.60313 4.17068 6.94857 3.97359 7.29879C3.89018 7.42291 3.81334 7.551 3.74335 7.68256C3.3302 8.37345 2.93034 9.07047 2.51666 9.76085C2.48157 9.83506 2.43535 9.90393 2.37948 9.96525C1.67228 9.96065 0.965083 9.96525 0.257887 9.96525C0.170785 9.96684 0.0841996 9.97851 0 10C0 9.81195 0.130805 9.6612 0.219071 9.5033C0.325417 9.29123 0.467387 9.09449 0.574264 8.88191C1.42184 7.4245 2.26037 5.96198 3.10528 4.50355C3.2967 4.18672 3.46101 3.86325 3.65349 3.55256C3.89383 3.14375 4.11769 2.72574 4.36813 2.32153C4.44789 2.15238 4.5553 1.99755 4.64303 1.83249C4.95463 1.2995 5.26037 0.763452 5.5709 0.230467C5.60774 0.147229 5.657 0.0695922 5.71712 0Z" fill="#EB4A60"/>
<path d="M12.6825 2.12731C13.0666 1.41975 13.4375 0.704472 13.827 0H15.9102C15.9405 0.00161831 15.9706 0.00662055 16 0.0149231C15.9307 0.12556 15.8726 0.242886 15.8116 0.358154C15.3092 1.30877 14.8083 2.2599 14.3088 3.21155C14.0989 3.59903 13.9037 3.99527 13.6909 4.38069L13.6699 4.38841L13.666 4.43678C12.6865 6.2893 11.7104 8.14319 10.7375 9.99846C8.82513 10.0005 6.91265 10.0005 5 9.99846C5.10884 9.75866 5.2377 9.52967 5.35874 9.29656C5.90345 8.24062 6.46231 7.19395 6.9992 6.13801C8.17419 6.13595 9.34917 6.13595 10.5242 6.13801C11.2499 4.80523 11.9601 3.46215 12.6805 2.12731H12.6825Z" fill="#595FB5"/>
</svg>
