<svg width="19" height="19" viewBox="0 0 19 19" fill="none" xmlns="http://www.w3.org/2000/svg">
<path d="M8.29387 1.20622C12.3139 1.20622 15.6722 4.08164 16.427 7.88216L18.0035 5.91139L19 6.70887L16.448 9.89883C16.3236 10.0539 16.1386 10.1381 15.9498 10.1381C15.8534 10.1381 15.7558 10.1164 15.6646 10.0711L11.8366 8.15711L12.4076 7.01573L15.2205 8.42188C14.6987 5.06348 11.7964 2.48219 8.29387 2.48219C4.42444 2.48219 1.27597 5.63066 1.27597 9.50009C1.27597 13.3695 4.42444 16.518 8.29387 16.518V17.794C3.72077 17.794 0 14.0732 0 9.50009C0 4.92699 3.72077 1.20622 8.29387 1.20622Z" fill="#DEDAFF"/>
</svg>
