<svg width="24" height="24" viewBox="0 0 24 24" fill="none" xmlns="http://www.w3.org/2000/svg">
<path d="M24 12C24 18.6275 18.6275 24 12 24C5.3725 24 0 18.6275 0 12C0 5.3725 5.3725 0 12 0C18.6275 0 24 5.3725 24 12Z" fill="url(#paint0_linear)"/>
<path d="M11.3739 17.6842C11.0546 17.6842 10.7337 17.578 10.4632 17.3609L5.63362 13.4854C4.9811 12.9619 4.8601 11.9872 5.36348 11.3084C5.8667 10.6297 6.80374 10.5039 7.45626 11.0274L11.1928 14.026L16.3483 8.09052C16.9007 7.4545 17.8442 7.40473 18.4557 7.97961C19.0671 8.55416 19.115 9.53577 18.5623 10.1718L12.4816 17.1726C12.1883 17.5102 11.7825 17.6842 11.3739 17.6842Z" fill="white"/>
<defs>
<linearGradient id="paint0_linear" x1="12" y1="0" x2="12" y2="24" gradientUnits="userSpaceOnUse">
<stop stop-color="#34E3B1"/>
<stop offset="1" stop-color="#71C9DF"/>
</linearGradient>
</defs>
</svg>
