<svg width="26" height="26" viewBox="0 0 26 26" fill="none" xmlns="http://www.w3.org/2000/svg">
<path d="M7.95263 15.0751L13.0025 20.1248L18.0544 15.0731L20.9931 18.0076L20.991 18.0096L13.0025 26L5.0139 18.0137L5.00979 18.0096L7.95263 15.0751ZM15.9823 12.999H15.9843L15.9823 13.001L13.0025 15.9828L10.0227 13.0051L10.0186 12.999L10.5443 12.4733L10.7989 12.2207L13.0025 10.0172L15.9823 12.999ZM20.1246 13.0012L23.0623 10.0636L26 13.0012L23.0623 15.9386L20.1246 13.0012ZM0 13.0004L2.9377 10.0628L5.87519 13.0004L2.9377 15.938L0 13.0004ZM7.95263 10.9249L13.0025 5.87726L18.0544 10.929L20.991 7.99036L13.0025 0L5.0139 7.98831L7.95263 10.9249Z" fill="#F3BA2F"/>
</svg>
