<svg width="18" height="18" viewBox="0 0 18 18" fill="none" xmlns="http://www.w3.org/2000/svg">
<g clip-path="url(#clip0)">
<path d="M4.5 1.125V0H0.5625C0.251824 0 0 0.251824 0 0.5625V4.5H1.125V1.91813L6.35063 7.14375L7.14375 6.35063L1.91813 1.125H4.5Z" fill="#BBB3FE"/>
<path d="M17.4375 0H13.5V1.125H16.0818L10.8562 6.35063L11.6493 7.14375L16.875 1.91813V4.5H18V0.5625C18 0.251824 17.7481 0 17.4375 0Z" fill="#BBB3FE"/>
<path d="M16.875 16.082L11.6493 10.8564L10.8562 11.6495L16.0818 16.8752H13.5V18.0002H17.4375C17.7481 18.0002 18 17.7483 18 17.4377V13.5002H16.875V16.082Z" fill="#BBB3FE"/>
<path d="M6.35063 10.8506L1.125 16.0818V13.4999H0V17.4374C0 17.7481 0.251824 17.9999 0.5625 17.9999H4.5V16.8749H1.91813L7.14375 11.6493L6.35063 10.8506Z" fill="#BBB3FE"/>
</g>
<defs>
<clipPath id="clip0">
<rect width="18" height="18" fill="white"/>
</clipPath>
</defs>
</svg>
