<svg width="28" height="28" viewBox="0 0 28 28" fill="none" xmlns="http://www.w3.org/2000/svg">
<g clip-path="url(#clip0)">
<path d="M7.08613 27.976L7.60162 27.832C8.09745 27.6934 8.38706 27.1791 8.24851 26.6833L2.35485 5.59212C2.27169 5.29448 2.07368 5.04206 1.8044 4.8904C1.53512 4.73875 1.21663 4.70028 0.918982 4.78346L0.852409 4.80204C0.23256 4.97523 -0.129535 5.61811 0.0436437 6.23796L5.93745 27.3291C6.076 27.8249 6.59028 28.1146 7.08613 27.976Z" fill="url(#paint0_linear)"/>
<path d="M27.8409 13.2369C25.9719 12.305 24.2429 11.1155 22.7043 9.70314C22.575 9.58476 22.5244 9.40304 22.574 9.23486C23.3363 6.35095 23.9024 3.41873 24.2685 0.458312C24.3264 -0.034102 24.0609 -0.17893 23.7809 0.159001C18.2871 6.72935 8.78159 -1.04307 3.12366 4.92866C3.19159 5.05584 3.24502 5.19024 3.28297 5.32935L7.10642 19.0204C12.774 13.1211 22.2457 20.8452 27.7299 14.2893C28.0099 13.9514 28.063 13.3335 27.8409 13.2369Z" fill="url(#paint1_linear)"/>
</g>
<defs>
<linearGradient id="paint0_linear" x1="4.14176" y1="4.74046" x2="4.14176" y2="28.0107" gradientUnits="userSpaceOnUse">
<stop stop-color="#34E3B1"/>
<stop offset="1" stop-color="#71C9DF"/>
</linearGradient>
<linearGradient id="paint1_linear" x1="15.5512" y1="-0.0246811" x2="15.5512" y2="19.0204" gradientUnits="userSpaceOnUse">
<stop stop-color="#34E3B1"/>
<stop offset="1" stop-color="#71C9DF"/>
</linearGradient>
<clipPath id="clip0">
<rect width="28" height="28" fill="white"/>
</clipPath>
</defs>
</svg>
