<svg width="17" height="17" viewBox="0 0 17 17" fill="none" xmlns="http://www.w3.org/2000/svg">
<path d="M5.19979 9.8568L8.50161 13.1585L11.8048 9.85546L13.7262 11.7742L13.7249 11.7755L8.50161 17L3.27832 11.7782L3.27563 11.7755L5.19979 9.8568ZM10.4499 8.49933H10.4513L10.4499 8.50067L8.50161 10.4503L6.55328 8.50336L6.5506 8.49933L6.89434 8.1556L7.06084 7.99044L8.50161 6.54972L10.4499 8.49933ZM13.1584 8.50081L15.0792 6.58006L17 8.50081L15.0792 10.4214L13.1584 8.50081ZM0 8.50027L1.9208 6.57953L3.84147 8.50027L1.9208 10.421L0 8.50027ZM5.19979 7.1432L8.50161 3.84282L11.8048 7.14588L13.7249 5.22447L8.50161 0L3.27832 5.22313L5.19979 7.1432Z" fill="#F3BA2F"/>
</svg>
