<svg width="25" height="25" viewBox="0 0 25 25" fill="none" xmlns="http://www.w3.org/2000/svg">
<g clip-path="url(#clip0)">
<path d="M5.54053 15.1077L4.67031 18.3563L1.4897 18.4236C0.53916 16.6605 0 14.6434 0 12.4999C0 10.4271 0.504102 8.47236 1.39766 6.75122H1.39834L4.22998 7.27036L5.47041 10.085C5.21079 10.8419 5.06929 11.6544 5.06929 12.4999C5.06938 13.4174 5.2356 14.2966 5.54053 15.1077Z" fill="#FBBB00"/>
<path d="M24.7817 10.1646C24.9252 10.9207 25.0001 11.7016 25.0001 12.4997C25.0001 13.3946 24.906 14.2676 24.7268 15.1096C24.1183 17.975 22.5283 20.4771 20.3257 22.2477L20.325 22.247L16.7584 22.065L16.2536 18.9139C17.7151 18.0567 18.8573 16.7154 19.459 15.1096H12.7749V10.1646H19.5565H24.7817Z" fill="#518EF8"/>
<path d="M20.3249 22.2471L20.3256 22.2478C18.1834 23.9696 15.4623 24.9998 12.5001 24.9998C7.73975 24.9998 3.60103 22.3391 1.48975 18.4236L5.54058 15.1077C6.59619 17.925 9.31392 19.9305 12.5001 19.9305C13.8695 19.9305 15.1525 19.5603 16.2535 18.914L20.3249 22.2471Z" fill="#28B446"/>
<path d="M20.4788 2.87749L16.4293 6.19272C15.2899 5.48052 13.943 5.06909 12.5 5.06909C9.2418 5.06909 6.47324 7.1666 5.47051 10.0849L1.39839 6.75112H1.39771C3.47808 2.74014 7.66899 -0.000244141 12.5 -0.000244141C15.533 -0.000244141 18.3139 1.08013 20.4788 2.87749Z" fill="#F14336"/>
</g>
<defs>
<clipPath id="clip0">
<rect width="25" height="25" fill="white" transform="translate(0 -0.000244141)"/>
</clipPath>
</defs>
</svg>
