<svg width="15" height="15" viewBox="0 0 15 15" fill="none" xmlns="http://www.w3.org/2000/svg">
<path d="M0.210938 1.80302C0.210938 0.923401 0.924011 0.210327 1.80363 0.210327H3.1688C4.04842 0.210327 4.76149 0.923401 4.76149 1.80302V3.16819C4.76149 4.04781 4.04842 4.76088 3.1688 4.76088H1.80363C0.924011 4.76088 0.210938 4.04781 0.210938 3.16819V1.80302Z" fill="#6F6C99"/>
<path d="M0.210938 8.62886C0.210938 7.74923 0.924011 7.03616 1.80363 7.03616H3.1688C4.04842 7.03616 4.76149 7.74923 4.76149 8.62886V9.99402C4.76149 10.8736 4.04842 11.5867 3.1688 11.5867H1.80363C0.924011 11.5867 0.210938 10.8736 0.210938 9.99402V8.62886Z" fill="#6F6C99"/>
<path d="M7.03677 1.80302C7.03677 0.923401 7.74985 0.210327 8.62947 0.210327H9.99463C10.8743 0.210327 11.5873 0.923401 11.5873 1.80302V3.16819C11.5873 4.04781 10.8743 4.76088 9.99463 4.76088H8.62947C7.74985 4.76088 7.03677 4.04781 7.03677 3.16819V1.80302Z" fill="#6F6C99"/>
<path d="M7.03677 8.62886C7.03677 7.74923 7.74985 7.03616 8.62947 7.03616H13.4075C14.2872 7.03616 15.0002 7.74923 15.0002 8.62886V13.4069C15.0002 14.2866 14.2872 14.9996 13.4075 14.9996H8.62947C7.74985 14.9996 7.03677 14.2866 7.03677 13.4069V8.62886Z" fill="#6F6C99"/>
</svg>
