<svg width="15" height="14" viewBox="0 0 15 14" fill="none" xmlns="http://www.w3.org/2000/svg">
<path d="M10.4937 1.95208L9.975 0.410655C9.9125 0.22494 9.73125 0.0949402 9.53125 0.0949402H5.46875C5.26875 0.0949402 5.0875 0.22494 5.025 0.410655L4.50625 1.95208H10.4937Z"/>
<path d="M0.649947 4.12494L0.131197 5.66637H3.43745V3.80922H1.0937C0.893697 3.80922 0.712447 3.93922 0.649947 4.12494Z"/>
<path d="M0 12.6307C0 13.2249 0.49375 13.714 1.09375 13.714H3.4375V6.59494H0V12.6307Z"/>
<path d="M14.3499 4.74419C14.2874 4.55848 14.1062 4.42848 13.9062 4.42848H11.5624V6.28562H14.8687L14.3499 4.74419Z"/>
<path d="M4.37505 13.714H10.6251V2.88065H4.37505V13.714Z"/>
<path d="M11.5624 7.21419V13.7142H13.9062C14.5062 13.7142 14.9999 13.2251 14.9999 12.6309V7.21419H11.5624Z"/>
</svg>
