<svg width="14" height="14" viewBox="0 0 14 14" fill="none" xmlns="http://www.w3.org/2000/svg">
<g clip-path="url(#clip0)">
<path d="M9.817 8.81408C9.61342 8.81408 9.43083 8.67116 9.38883 8.46408C9.34042 8.22724 9.49325 7.99624 9.73008 7.94783C11.3232 7.62349 13.0119 5.66233 13.1612 2.62491H11.2293C10.9878 2.62491 10.7918 2.42891 10.7918 2.18741C10.7918 1.94591 10.9878 1.74991 11.2293 1.74991H13.6092C13.8507 1.74991 14.0467 1.94591 14.0467 2.18741C14.0467 5.97849 11.9631 8.38591 9.90508 8.80533C9.87533 8.81116 9.84617 8.81408 9.817 8.81408Z" fill="#6F6C99"/>
<path d="M4.17725 8.80241C4.14575 8.80241 4.11367 8.79891 4.081 8.79191C2.05333 8.33691 0 5.92249 0 2.18741C0 1.94591 0.196 1.74991 0.4375 1.74991H2.77083C3.01233 1.74991 3.20833 1.94591 3.20833 2.18741C3.20833 2.42891 3.01233 2.62491 2.77083 2.62491H0.886083C1.03483 5.61974 2.70083 7.58558 4.27292 7.93791C4.50858 7.99099 4.65675 8.22491 4.60425 8.46058C4.55817 8.66416 4.37733 8.80241 4.17725 8.80241Z" fill="#6F6C99"/>
<path d="M7.72933 9.39722C7.48783 9.39722 7.29183 9.59322 7.29183 9.83472H6.7085C6.7085 9.59322 6.5125 9.39722 6.271 9.39722C6.0295 9.39722 5.8335 9.59322 5.8335 9.83472V11.958C5.8335 12.1995 6.0295 12.3955 6.271 12.3955H7.72933C7.97083 12.3955 8.16683 12.1995 8.16683 11.958V9.83472C8.16683 9.59322 7.97083 9.39722 7.72933 9.39722Z" fill="#6F6C99"/>
<path d="M8.31266 11.6666H5.68766C4.80275 11.6666 4.0835 12.3859 4.0835 13.2708V13.5625C4.0835 13.804 4.2795 14 4.521 14H9.47933C9.72083 14 9.91683 13.804 9.91683 13.5625V13.2708C9.91683 12.3859 9.19758 11.6666 8.31266 11.6666Z" fill="#6F6C99"/>
<path d="M10.646 -9.15527e-05H3.35433C2.79141 -9.15527e-05 2.3335 0.457825 2.3335 1.02074V5.25283C2.35858 9.01883 6.67291 10.5582 6.85666 10.6218C6.90333 10.6382 6.95175 10.6463 7.00016 10.6463C7.04858 10.6463 7.097 10.6382 7.14308 10.6224C7.32741 10.5582 11.6668 9.01824 11.6668 5.24991V1.02074C11.6668 0.457825 11.2089 -9.15527e-05 10.646 -9.15527e-05Z" fill="#6F6C99"/>
</g>
<defs>
<clipPath id="clip0">
<rect width="14" height="14" fill="white"/>
</clipPath>
</defs>
</svg>
