<svg width="23" height="19" viewBox="0 0 23 19" fill="none" xmlns="http://www.w3.org/2000/svg">
<path d="M20.2339 3.27054H16.9087V2.92893C16.9087 1.40272 15.67 0.164062 14.1438 0.164062H8.85556C7.32874 0.164062 6.09069 1.40272 6.09069 2.92893V3.27054H2.76487C1.23805 3.27054 0 4.50859 0 6.03541V16.0713C0 17.5975 1.23805 18.8361 2.76487 18.8361H20.2351C21.762 18.8361 23 17.5975 23 16.0713V6.03541C22.9988 4.50797 21.7607 3.27054 20.2339 3.27054ZM11.4988 15.968C8.6184 15.968 6.27625 13.6259 6.27625 10.7455C6.27625 7.86575 8.6184 5.52299 11.4988 5.52299C14.3791 5.52299 16.7213 7.86514 16.7213 10.7455C16.7213 13.6259 14.3785 15.968 11.4988 15.968ZM14.2636 10.7455C14.2636 12.2686 13.0225 13.5104 11.4988 13.5104C9.97502 13.5104 8.73391 12.2686 8.73391 10.7455C8.73391 9.22176 9.97502 7.98065 11.4988 7.98065C13.0225 7.98065 14.2636 9.22176 14.2636 10.7455Z" fill="url(#paint0_linear)"/>
<defs>
<linearGradient id="paint0_linear" x1="26" y1="24.5" x2="7.5" y2="-1.5" gradientUnits="userSpaceOnUse">
<stop stop-color="#51D6C6"/>
<stop offset="1" stop-color="white"/>
</linearGradient>
</defs>
</svg>
