<svg width="15" height="15" viewBox="0 0 15 15" fill="none" xmlns="http://www.w3.org/2000/svg">
<path d="M14.1676 3.05512H7.81742C7.45425 1.77698 6.27646 0.838135 4.88351 0.838135C3.49052 0.838135 2.31273 1.77698 1.94959 3.05512H0.832414C0.372686 3.05509 0 3.42781 0 3.88751C0 4.3472 0.372686 4.71995 0.832414 4.71995H1.94954C2.3127 5.99809 3.49047 6.93694 4.88345 6.93694C6.2764 6.93694 7.45422 5.99809 7.81736 4.71995H14.1676C14.6273 4.71995 15 4.34723 15 3.88754C15 3.42784 14.6273 3.05512 14.1676 3.05512ZM4.88348 5.27205C4.12 5.27205 3.4989 4.65093 3.4989 3.88748C3.4989 3.12403 4.12 2.5029 4.88348 2.5029C5.64695 2.5029 6.26805 3.12403 6.26805 3.88748C6.26805 4.65093 5.64695 5.27205 4.88348 5.27205Z" fill="#9996CE"/>
<path d="M14.1676 10.2807H13.0484C12.6853 9.00254 11.5075 8.06369 10.1145 8.06369C8.72155 8.06369 7.54376 9.00254 7.18062 10.2807H0.832414C0.372686 10.2807 0 10.6534 0 11.1131C0 11.5728 0.372686 11.9455 0.832414 11.9455H7.18062C7.54378 13.2236 8.72155 14.1625 10.1145 14.1625C11.5075 14.1625 12.6853 13.2236 13.0484 11.9455H14.1676C14.6273 11.9455 15 11.5728 15 11.1131C15 10.6534 14.6273 10.2807 14.1676 10.2807ZM10.1145 12.4977C9.35105 12.4977 8.72996 11.8765 8.72996 11.1131C8.72996 10.3496 9.35108 9.72852 10.1145 9.72852C10.878 9.72852 11.4991 10.3496 11.4991 11.1131C11.4991 11.8766 10.878 12.4977 10.1145 12.4977Z" fill="#9996CE"/>
</svg>
