<svg width="28" height="28" viewBox="0 0 28 28" fill="none" xmlns="http://www.w3.org/2000/svg">
<g clip-path="url(#clip0)">
<path d="M7.12265 7.56177L4.69684 7.74918C4.02184 7.80135 3.42066 8.15512 3.04737 8.71976L0.24974 12.951C-0.0333748 13.3792 -0.0783822 13.9151 0.129265 14.3845C0.336966 14.8539 0.763799 15.1811 1.27102 15.2597L3.49214 15.6037C4.01172 12.8463 5.25552 10.0958 7.12265 7.56177Z" fill="url(#paint0_linear)"/>
<path d="M12.3966 24.5083L12.7406 26.7294C12.8192 27.2366 13.1464 27.6635 13.6157 27.8711C13.811 27.9575 14.0177 28.0002 14.2234 28.0002C14.5123 28.0002 14.7992 27.916 15.0493 27.7506L19.2807 24.9531C19.8453 24.5797 20.1991 23.9785 20.2511 23.3036L20.4385 20.8778C17.9045 22.745 15.154 23.9888 12.3966 24.5083Z" fill="url(#paint1_linear)"/>
<path d="M11.5611 22.9684C11.6382 22.9684 11.7157 22.9621 11.7931 22.9492C12.9483 22.756 14.0617 22.4306 15.1239 22.0047L5.99495 12.8758C5.56904 13.9379 5.24366 15.0513 5.0505 16.2066C4.97438 16.662 5.12712 17.1259 5.45355 17.4524L10.5473 22.5461C10.8183 22.8171 11.1841 22.9684 11.5611 22.9684Z" fill="url(#paint2_linear)"/>
<path d="M25.7673 12.4141C28.0012 8.09527 28.0839 3.53131 27.9672 1.39086C27.9272 0.657448 27.3425 0.0727338 26.609 0.0327576C26.2605 0.0137265 25.8474 0 25.3819 0C22.9885 0 19.2013 0.362521 15.5857 2.23265C12.7124 3.71888 8.9446 6.99141 6.72168 11.2921C6.74793 11.3126 6.77358 11.3344 6.79775 11.3586L16.6414 21.2022C16.6656 21.2264 16.6873 21.252 16.7078 21.2782C21.0085 19.0553 24.281 15.2875 25.7673 12.4141ZM16.2802 5.91933C17.8793 4.32022 20.4813 4.32006 22.0805 5.91933C22.8552 6.69397 23.2819 7.724 23.2819 8.81955C23.2819 9.91509 22.8552 10.9451 22.0805 11.7198C21.2811 12.5192 20.2305 12.9191 19.1804 12.9192C18.1299 12.9192 17.0798 12.5195 16.2802 11.7198C15.5055 10.9451 15.0788 9.91509 15.0788 8.81955C15.0788 7.724 15.5055 6.69397 16.2802 5.91933Z" fill="url(#paint3_linear)"/>
<path d="M17.4404 10.5598C18.3999 11.5193 19.9612 11.5193 20.9207 10.5598C21.3855 10.0949 21.6415 9.47697 21.6415 8.81963C21.6415 8.16228 21.3855 7.54432 20.9207 7.07953C20.441 6.59975 19.8108 6.35989 19.1805 6.35989C18.5504 6.35989 17.9202 6.59975 17.4404 7.07953C16.9757 7.54432 16.7196 8.16228 16.7196 8.81963C16.7196 9.47697 16.9756 10.095 17.4404 10.5598Z" fill="url(#paint4_linear)"/>
<path d="M0.836819 23.0745C1.04676 23.0745 1.25671 22.9945 1.41683 22.8342L4.09505 20.156C4.41541 19.8356 4.41541 19.3163 4.09505 18.9959C3.77474 18.6756 3.25532 18.6756 2.93496 18.9959L0.256749 21.6741C-0.0636103 21.9945 -0.0636103 22.5139 0.256749 22.8342C0.416929 22.9944 0.626874 23.0745 0.836819 23.0745Z" fill="url(#paint5_linear)"/>
<path d="M6.5497 21.4501C6.2294 21.1298 5.70997 21.1298 5.38962 21.4501L0.240514 26.5992C-0.0798457 26.9196 -0.0798457 27.439 0.240514 27.7593C0.400693 27.9195 0.610639 27.9996 0.820584 27.9996C1.03053 27.9996 1.24047 27.9195 1.4006 27.7593L6.54965 22.6102C6.87006 22.2899 6.87006 21.7705 6.5497 21.4501Z" fill="url(#paint6_linear)"/>
<path d="M7.84384 23.9052L5.16568 26.5835C4.84533 26.9038 4.84533 27.4232 5.16568 27.7436C5.32586 27.9037 5.53581 27.9838 5.7457 27.9838C5.95559 27.9838 6.16559 27.9038 6.32571 27.7436L9.00392 25.0653C9.32428 24.745 9.32428 24.2256 9.00392 23.9052C8.68362 23.5849 8.1642 23.5849 7.84384 23.9052Z" fill="url(#paint7_linear)"/>
</g>
<defs>
<linearGradient id="paint0_linear" x1="3.56145" y1="7.56177" x2="3.56145" y2="15.6037" gradientUnits="userSpaceOnUse">
<stop stop-color="#34E3B1"/>
<stop offset="1" stop-color="#71C9DF"/>
</linearGradient>
<linearGradient id="paint1_linear" x1="16.4176" y1="20.8778" x2="16.4176" y2="28.0002" gradientUnits="userSpaceOnUse">
<stop stop-color="#34E3B1"/>
<stop offset="1" stop-color="#71C9DF"/>
</linearGradient>
<linearGradient id="paint2_linear" x1="10.0776" y1="12.8758" x2="10.0776" y2="22.9684" gradientUnits="userSpaceOnUse">
<stop stop-color="#34E3B1"/>
<stop offset="1" stop-color="#71C9DF"/>
</linearGradient>
<linearGradient id="paint3_linear" x1="17.3608" y1="0" x2="17.3608" y2="21.2782" gradientUnits="userSpaceOnUse">
<stop stop-color="#34E3B1"/>
<stop offset="1" stop-color="#71C9DF"/>
</linearGradient>
<linearGradient id="paint4_linear" x1="19.1805" y1="6.35989" x2="19.1805" y2="11.2794" gradientUnits="userSpaceOnUse">
<stop stop-color="#34E3B1"/>
<stop offset="1" stop-color="#71C9DF"/>
</linearGradient>
<linearGradient id="paint5_linear" x1="2.1759" y1="18.7556" x2="2.1759" y2="23.0745" gradientUnits="userSpaceOnUse">
<stop stop-color="#34E3B1"/>
<stop offset="1" stop-color="#71C9DF"/>
</linearGradient>
<linearGradient id="paint6_linear" x1="3.3951" y1="21.2099" x2="3.3951" y2="27.9996" gradientUnits="userSpaceOnUse">
<stop stop-color="#34E3B1"/>
<stop offset="1" stop-color="#71C9DF"/>
</linearGradient>
<linearGradient id="paint7_linear" x1="7.0848" y1="23.665" x2="7.0848" y2="27.9838" gradientUnits="userSpaceOnUse">
<stop stop-color="#34E3B1"/>
<stop offset="1" stop-color="#71C9DF"/>
</linearGradient>
<clipPath id="clip0">
<rect width="28" height="28" fill="white"/>
</clipPath>
</defs>
</svg>
