<svg width="14" height="14" viewBox="0 0 14 14" fill="none" xmlns="http://www.w3.org/2000/svg">
<g clip-path="url(#clip0)">
<path d="M7.32804 3.43608L4.86707 0.154774C4.71247 -0.051917 4.36559 -0.051917 4.21099 0.154774L1.75002 3.43608C1.54771 3.70525 1.74032 4.09216 2.07807 4.09216H3.30856V11.8852C3.30856 12.1119 3.49201 12.2954 3.71872 12.2954H5.35934C5.58605 12.2954 5.76403 12.1119 5.76403 11.8852V4.09216H6.99997C7.33802 4.09216 7.53014 3.70498 7.32804 3.43608Z" fill="#9996CE"/>
<path d="M12.9219 9.89862H11.6859V2.10555C11.6859 1.87884 11.508 1.69539 11.2813 1.69539H9.6406C9.41389 1.69539 9.23044 1.87884 9.23044 2.10555V9.8986H7.99995C7.66217 9.8986 7.46959 10.2855 7.6719 10.5547L10.1329 13.836C10.2967 14.0549 10.6255 14.0546 10.789 13.836L13.2499 10.5547C13.452 10.2858 13.2599 9.89862 12.9219 9.89862Z" fill="#9996CE"/>
</g>
<defs>
<clipPath id="clip0">
<rect width="14" height="14" fill="white"/>
</clipPath>
</defs>
</svg>
