<svg width="15" height="15" viewBox="0 0 15 15" fill="none" xmlns="http://www.w3.org/2000/svg">
<g clip-path="url(#clip0)">
<path d="M1.87491 6.87479C1.71491 6.87479 1.55491 6.81354 1.43304 6.69166C1.18866 6.44729 1.18866 6.05229 1.43304 5.80791L5.74929 1.49166C5.99366 1.24729 6.38866 1.24729 6.63304 1.49166C6.87741 1.73604 6.87741 2.13104 6.63304 2.37541L2.31679 6.69166C2.19491 6.81354 2.03491 6.87479 1.87491 6.87479Z" fill="#9996CE"/>
<path d="M7.0313 3.75014C6.90942 3.75014 6.78942 3.70264 6.70005 3.61264L4.51255 1.42514C4.37817 1.29139 4.33817 1.08951 4.41067 0.914512C4.48317 0.739512 4.65442 0.625137 4.8438 0.625137H7.0313C7.29005 0.625137 7.50005 0.835137 7.50005 1.09389V3.28139C7.50005 3.47076 7.38567 3.64201 7.21067 3.71451C7.15255 3.73826 7.09192 3.75014 7.0313 3.75014Z" fill="#9996CE"/>
<path d="M4.375 9.53104V13.1248H0.625V9.53104C0.625 9.09979 0.975 8.74979 1.40625 8.74979H3.59375C4.025 8.74979 4.375 9.09979 4.375 9.53104Z" fill="#9996CE"/>
<path d="M9.375 7.03139V13.1251H5.625V7.03139C5.625 6.60014 5.975 6.25014 6.40625 6.25014H8.59375C9.025 6.25014 9.375 6.60014 9.375 7.03139Z" fill="#9996CE"/>
<path d="M14.375 4.53125V13.125H10.625V4.53125C10.625 4.1 10.975 3.75 11.4062 3.75H13.5937C14.025 3.75 14.375 4.1 14.375 4.53125Z" fill="#9996CE"/>
<path d="M14.5312 15H0.46875C0.21 15 0 14.79 0 14.5312C0 14.2725 0.21 14.0625 0.46875 14.0625H14.5312C14.79 14.0625 15 14.2725 15 14.5312C15 14.79 14.79 15 14.5312 15Z" fill="#9996CE"/>
</g>
<defs>
<clipPath id="clip0">
<rect width="15" height="15" fill="white"/>
</clipPath>
</defs>
</svg>
