<svg width="110" height="110" viewBox="0 0 110 110" fill="none" xmlns="http://www.w3.org/2000/svg">
<circle cx="55" cy="55" r="55" fill="#312D5F"/>
<mask id="mask0" mask-type="alpha" maskUnits="userSpaceOnUse" x="0" y="0" width="110" height="110">
<circle cx="55" cy="55" r="55" fill="#312D5F"/>
</mask>
<g mask="url(#mask0)">
<path d="M78.2767 132H31V81.9841C31 80.8885 31.891 80 32.9897 80H77.0103C78.109 80 79 80.8885 79 81.9841V131.279C79 131.677 78.6762 132 78.2767 132Z" fill="url(#paint0_linear)"/>
</g>
<g clip-path="url(#clip0)">
<path d="M56.0996 75.0344H52.627L47.1675 59.2471L62.3427 58.3408L56.0996 75.0344Z" fill="url(#paint1_linear)"/>
<path d="M37.931 29.915C37.9139 31.2477 37.9139 57.3371 51.3853 61.5739C64.8571 65.8107 70.9418 43.7361 70.4589 28.0149L37.931 29.915Z" fill="url(#paint2_linear)"/>
<path d="M65.1322 77.4296H43.5947V80.0003H65.1322V77.4296Z" fill="url(#paint3_linear)"/>
<path d="M65.1319 77.4298H43.5947L49.0456 74.5549H59.6814L65.1319 77.4298Z" fill="url(#paint4_linear)"/>
<path d="M36.3692 26.2135C35.1867 26.2844 34.2194 27.1451 34.2194 28.1261V30.1329C34.2194 31.1139 35.1875 31.8656 36.3704 31.8033L73.2911 29.8502C74.4743 29.7875 75.4425 28.9334 75.4425 27.9524V25.6605C75.4425 24.6791 74.4751 23.9345 73.2927 24.005L36.3692 26.2135Z" fill="url(#paint5_linear)"/>
<path d="M60.925 63.6478C60.0646 63.6478 59.3222 63.1131 59.2224 62.3887C59.115 61.6098 59.7905 60.9061 60.7317 60.8165C60.9107 60.799 73.3007 59.5126 74.4752 52.8461C74.6733 51.7222 74.6515 50.2536 73.4219 49.641C72.407 49.1351 70.7456 49.2959 69.558 50.0148C68.8826 50.4237 68.1434 51.1399 68.4579 52.2296C68.6778 52.9925 68.1089 53.7586 67.1871 53.9408C66.2657 54.1227 65.3395 53.6519 65.1197 52.8889C64.5496 50.9129 65.4516 48.9812 67.5318 47.7222C69.8428 46.3229 72.9933 46.1114 75.1926 47.2077C76.4781 47.8483 78.5356 49.4863 77.8717 53.2562C77.2149 56.9836 74.049 59.9698 68.7158 61.8914C64.8864 63.2712 61.2744 63.6248 61.1227 63.6388C61.0561 63.6447 60.9904 63.6478 60.925 63.6478Z" fill="url(#paint6_linear)"/>
<path d="M48.0751 63.6478C48.9355 63.6478 49.6779 63.1131 49.7781 62.3887C49.8855 61.6098 49.21 60.9061 48.2688 60.8165C48.0898 60.799 35.6998 59.5126 34.5253 52.8461C34.3272 51.7222 34.349 50.2536 35.5786 49.641C36.5935 49.1351 38.2549 49.2959 39.4429 50.0148C40.1183 50.4237 40.8571 51.1399 40.543 52.2296C40.3231 52.9925 40.892 53.7586 41.8138 53.9408C42.7352 54.1227 43.6614 53.6519 43.8812 52.8889C44.4513 50.9129 43.5493 48.9812 41.4691 47.7222C39.1581 46.3229 36.0076 46.1114 33.8083 47.2077C32.5228 47.8483 30.4649 49.4863 31.1292 53.2562C31.786 56.9836 34.9519 59.9698 40.2851 61.8914C44.1145 63.2712 47.7265 63.6248 47.8782 63.6388C47.9444 63.6447 48.0098 63.6478 48.0751 63.6478Z" fill="url(#paint7_linear)"/>
<path d="M63.1512 27.866C63.0034 27.866 62.8795 27.7518 62.8711 27.605C62.8628 27.4531 62.9817 27.3231 63.1362 27.3149L66.4332 27.1404C66.5885 27.1346 66.72 27.2487 66.7283 27.401C66.7366 27.5528 66.6178 27.6829 66.4633 27.6911L63.1663 27.8656C63.1615 27.866 63.156 27.866 63.1512 27.866Z" fill="white"/>
<path d="M37.9294 29.2C37.7813 29.2 37.6577 29.0859 37.6493 28.939C37.641 28.7872 37.7599 28.6571 37.9144 28.6489L57.6126 27.6067C57.7667 27.5978 57.8994 27.7154 57.9078 27.8673C57.9161 28.0192 57.7972 28.1492 57.6427 28.1574L37.9449 29.1992C37.9397 29.2 37.9346 29.2 37.9294 29.2Z" fill="white"/>
<path d="M53.1818 58.6169C53.1711 58.6169 53.16 58.6165 53.1493 58.6153C49.5825 58.2118 46.7307 55.3564 44.674 50.1281C42.9753 45.8107 42.174 40.758 41.8004 37.2799C41.7842 37.1284 41.8959 36.9925 42.05 36.9765C42.2045 36.9621 42.3423 37.0704 42.3586 37.2219C42.9995 43.1928 45.3403 57.1771 53.2131 58.0674C53.3672 58.0849 53.4777 58.2216 53.4599 58.3731C53.4436 58.5133 53.3224 58.6169 53.1818 58.6169Z" fill="white"/>
<path d="M41.8415 34.7984C41.695 34.7984 41.5714 34.6863 41.5619 34.5406C41.5092 33.7446 41.4953 33.2866 41.4945 33.2675C41.4898 33.1152 41.6118 32.9883 41.7667 32.9836C41.9326 32.9735 42.0511 33.0989 42.0554 33.2512C42.0554 33.2558 42.0701 33.7197 42.122 34.5052C42.1319 34.657 42.0146 34.7883 41.8602 34.7984C41.8538 34.7984 41.8475 34.7984 41.8415 34.7984Z" fill="white"/>
</g>
<defs>
<linearGradient id="paint0_linear" x1="83.4691" y1="63.0888" x2="-7.83028" y2="202.914" gradientUnits="userSpaceOnUse">
<stop stop-color="#53D8FF"/>
<stop offset="1" stop-color="#3840F7"/>
</linearGradient>
<linearGradient id="paint1_linear" x1="49.6479" y1="69.8149" x2="83.1116" y2="23.189" gradientUnits="userSpaceOnUse">
<stop stop-color="#FDF53F"/>
<stop offset="1" stop-color="#D93C65"/>
</linearGradient>
<linearGradient id="paint2_linear" x1="37.5572" y1="61.137" x2="71.0212" y2="14.511" gradientUnits="userSpaceOnUse">
<stop stop-color="#FDF53F"/>
<stop offset="1" stop-color="#D93C65"/>
</linearGradient>
<linearGradient id="paint3_linear" x1="54.5688" y1="75.4071" x2="53.334" y2="95.9733" gradientUnits="userSpaceOnUse">
<stop stop-color="#FDF53F"/>
<stop offset="1" stop-color="#D93C65"/>
</linearGradient>
<linearGradient id="paint4_linear" x1="63.9252" y1="67.1632" x2="38.0961" y2="95.857" gradientUnits="userSpaceOnUse">
<stop stop-color="#FDF53F"/>
<stop offset="1" stop-color="#D93C65"/>
</linearGradient>
<linearGradient id="paint5_linear" x1="77.1902" y1="-1.23025" x2="4.40405" y2="97.3488" gradientUnits="userSpaceOnUse">
<stop stop-color="#FDF53F"/>
<stop offset="1" stop-color="#D93C65"/>
</linearGradient>
<linearGradient id="paint6_linear" x1="77.9628" y1="44.5517" x2="43.7039" y2="88.1556" gradientUnits="userSpaceOnUse">
<stop stop-color="#FDF53F"/>
<stop offset="1" stop-color="#D93C65"/>
</linearGradient>
<linearGradient id="paint7_linear" x1="31.0374" y1="44.5518" x2="65.2963" y2="88.1556" gradientUnits="userSpaceOnUse">
<stop stop-color="#FDF53F"/>
<stop offset="1" stop-color="#D93C65"/>
</linearGradient>
<clipPath id="clip0">
<rect width="47" height="56" fill="white" transform="translate(31 24)"/>
</clipPath>
</defs>
</svg>
