<svg width="24" height="24" viewBox="0 0 24 24" fill="none" xmlns="http://www.w3.org/2000/svg">
<path d="M6.30469 12.8858H7.25609V18.0352H8.15619V12.8858H9.12527V12.0424H6.30469V12.8858Z" fill="#6B66A7"/>
<path d="M13.9153 13.5154C13.6177 13.5154 13.34 13.6779 13.079 13.9995V12.0422H12.27V18.0352H13.079V17.6026C13.3498 17.9368 13.6273 18.0968 13.9153 18.0968C14.2372 18.0968 14.4537 17.9274 14.5617 17.595C14.616 17.4057 14.6438 17.1084 14.6438 16.6951V14.9171C14.6438 14.4943 14.616 14.1991 14.5617 14.0197C14.454 13.6848 14.2369 13.5154 13.9153 13.5154ZM13.8343 16.7585C13.8343 17.1621 13.7159 17.361 13.4822 17.361C13.3493 17.361 13.2141 17.2974 13.0788 17.1619V14.4405C13.2141 14.3067 13.3493 14.2433 13.4822 14.2433C13.7157 14.2433 13.8343 14.4501 13.8343 14.8527V16.7585Z" fill="#6B66A7"/>
<path d="M10.7603 16.9828C10.5808 17.2364 10.4111 17.3614 10.2486 17.3614C10.1406 17.3614 10.0789 17.2978 10.0593 17.1721C10.0519 17.146 10.0519 17.0473 10.0519 16.8578V13.5702H9.24268V17.1006C9.24268 17.4161 9.26993 17.6292 9.31412 17.7648C9.39539 17.9911 9.57512 18.0972 9.83537 18.0972C10.1332 18.0972 10.4386 17.9175 10.7603 17.5487V18.0358H11.57V13.5702H10.7603V16.9828Z" fill="#6B66A7"/>
<path d="M11.4539 9.4446C11.7173 9.4446 11.8438 9.23566 11.8438 8.81827V6.92012C11.8438 6.50248 11.7173 6.29453 11.4539 6.29453C11.1902 6.29453 11.0635 6.50273 11.0635 6.92012V8.81827C11.0635 9.23591 11.1902 9.4446 11.4539 9.4446Z" fill="#6B66A7"/>
<path d="M12 0C5.37256 0 0 5.37256 0 12C0 18.6274 5.37256 24 12 24C18.6274 24 24 18.6274 24 12C24 5.37256 18.6274 0 12 0ZM13.3347 5.61269H14.1501V8.93512C14.1501 9.12687 14.1501 9.22631 14.1599 9.25307C14.1778 9.37976 14.2421 9.44458 14.3516 9.44458C14.5152 9.44458 14.6868 9.31789 14.8682 9.06181V5.61269H15.6858V10.1252H14.8682V9.63315C14.5427 10.0063 14.2323 10.1873 13.934 10.1873C13.6708 10.1873 13.4891 10.0805 13.4071 9.85215C13.3619 9.7154 13.3347 9.49958 13.3347 9.18114V5.61269ZM10.2465 7.08411C10.2465 6.60166 10.3285 6.24908 10.5023 6.02099C10.7284 5.71237 11.0469 5.55818 11.4544 5.55818C11.864 5.55818 12.1822 5.71237 12.4083 6.02099C12.5797 6.24884 12.6617 6.60166 12.6617 7.08411V8.66431C12.6617 9.14406 12.5797 9.49983 12.4083 9.72546C12.1822 10.0334 11.864 10.1873 11.4544 10.1873C11.0469 10.1873 10.7284 10.0334 10.5023 9.72546C10.3285 9.49983 10.2465 9.14382 10.2465 8.66431V7.08411ZM8.05983 4.06981L8.70359 6.44771L9.32207 4.06981H10.2391L9.14824 7.67288V10.1254H8.24176V7.67288C8.15951 7.2383 7.97807 6.60166 7.68712 5.75705C7.4961 5.19505 7.29698 4.63132 7.10596 4.06981H8.05983ZM18.46 18.4293C18.296 19.1411 17.7138 19.6665 17.0129 19.7448C15.3524 19.9302 13.6728 19.9312 11.9993 19.9302C10.3265 19.9312 8.64589 19.9302 6.9859 19.7448C6.28493 19.6665 5.70255 19.1413 5.53903 18.4293C5.30553 17.4155 5.30553 16.3085 5.30553 15.2645C5.30553 14.2205 5.30848 13.1137 5.54173 12.0997C5.70549 11.3877 6.28739 10.8622 6.98836 10.7842C8.64859 10.5988 10.329 10.5978 12.0022 10.5988C13.675 10.5978 15.3553 10.5988 17.0156 10.7842C17.7165 10.8625 18.2989 11.3877 18.4632 12.0997C18.6959 13.1137 18.6945 14.2205 18.6945 15.2645C18.6945 16.3085 18.6935 17.4155 18.46 18.4293Z" fill="#6B66A7"/>
<path d="M16.4915 13.5151C16.0775 13.5151 15.7561 13.6671 15.5224 13.9727C15.3508 14.1986 15.2725 14.5478 15.2725 15.0248V16.589C15.2725 17.0636 15.3601 17.4152 15.5325 17.6389C15.766 17.9438 16.0883 18.0963 16.5116 18.0963C16.9342 18.0963 17.2659 17.9365 17.4898 17.6121C17.588 17.4688 17.6518 17.3065 17.6788 17.1272C17.6865 17.0462 17.696 16.8667 17.696 16.6057V16.4881H16.8708C16.8708 16.8122 16.8603 16.9922 16.8531 17.0361C16.807 17.2524 16.6906 17.3605 16.4915 17.3605C16.2136 17.3605 16.0775 17.1542 16.0775 16.7413V15.9492H17.696V15.0243C17.696 14.5473 17.6153 14.1981 17.4456 13.9722C17.2195 13.6673 16.8976 13.5151 16.4915 13.5151ZM16.8873 15.276H16.078V14.8628C16.078 14.4498 16.2138 14.2433 16.4841 14.2433C16.7517 14.2433 16.8873 14.45 16.8873 14.8628V15.276Z" fill="#6B66A7"/>
</svg>
