<svg width="24" height="24" viewBox="0 0 24 24" fill="none" xmlns="http://www.w3.org/2000/svg">
<path d="M12.0001 0.0502625C5.37268 0.0502625 0 5.42295 0 12.0503C0 17.9943 4.32626 22.9169 9.9987 23.8702V14.5539H7.10393V11.2013H9.9987V8.72927C9.9987 5.86098 11.7506 4.29793 14.3096 4.29793C15.5353 4.29793 16.5886 4.38926 16.8944 4.42949V7.42761L15.1194 7.42847C13.728 7.42847 13.4598 8.08953 13.4598 9.05994V11.1996H16.7798L16.3468 14.5522H13.4598V23.9503C19.397 23.2277 24 18.1797 24 12.0469C24 5.42295 18.6273 0.0502625 12.0001 0.0502625Z" fill="#6B66A7"/>
</svg>
