<svg width="491" height="132" viewBox="0 0 491 132" fill="none" xmlns="http://www.w3.org/2000/svg">
<g filter="url(#filter0_d)">
<path d="M16 132C34.186 129.987 48.8008 112.563 70.5 110.5C82.0654 109.4 84.1626 115.174 94.5 118.5C104.837 121.825 114.751 115.936 138 118.5C157.186 120.615 155.2 109.623 174 110.5C198.5 116 187.151 112.211 207 114.5C226.849 116.789 238 71.0001 260 95.0001C267.381 103.052 281.5 114.5 293 114.5C307 114.5 328.47 105.192 333 95.0001C343 72.5007 370.307 83.2447 396.5 93.0001C417 104.171 441.254 54.0001 461.5 54.0001" stroke="url(#paint0_linear)" stroke-width="3" stroke-linecap="round" stroke-linejoin="round"/>
</g>
<g filter="url(#filter1_f)">
<circle r="12.5" transform="matrix(0.921166 0.389171 -0.588175 0.808733 460.637 53.0105)" fill="url(#paint1_linear)"/>
</g>
<defs>
<filter id="filter0_d" x="0.499756" y="38.5001" width="476.5" height="109" filterUnits="userSpaceOnUse" color-interpolation-filters="sRGB">
<feFlood flood-opacity="0" result="BackgroundImageFix"/>
<feColorMatrix in="SourceAlpha" type="matrix" values="0 0 0 0 0 0 0 0 0 0 0 0 0 0 0 0 0 0 127 0"/>
<feOffset/>
<feGaussianBlur stdDeviation="7"/>
<feColorMatrix type="matrix" values="0 0 0 0 0.294118 0 0 0 0 0.847059 0 0 0 0 0.780392 0 0 0 0.7 0"/>
<feBlend mode="normal" in2="BackgroundImageFix" result="effect1_dropShadow"/>
<feBlend mode="normal" in="SourceGraphic" in2="effect1_dropShadow" result="shape"/>
</filter>
<filter id="filter1_f" x="405.851" y="0.666023" width="109.573" height="104.689" filterUnits="userSpaceOnUse" color-interpolation-filters="sRGB">
<feFlood flood-opacity="0" result="BackgroundImageFix"/>
<feBlend mode="normal" in="SourceGraphic" in2="BackgroundImageFix" result="shape"/>
<feGaussianBlur stdDeviation="20.5616" result="effect1_foregroundBlur"/>
</filter>
<linearGradient id="paint0_linear" x1="34.6963" y1="123.808" x2="468.757" y2="124.397" gradientUnits="userSpaceOnUse">
<stop stop-color="#50E3C2"/>
<stop offset="0.220833" stop-color="#36BBFF"/>
<stop offset="0.846875" stop-color="#50E3C2"/>
</linearGradient>
<linearGradient id="paint1_linear" x1="13.6666" y1="32.0606" x2="27.7877" y2="19.8891" gradientUnits="userSpaceOnUse">
<stop stop-color="#50E3C1" stop-opacity="0.63"/>
<stop offset="1" stop-color="#51E3BF"/>
</linearGradient>
</defs>
</svg>
