<svg width="167" height="61" viewBox="0 0 167 61" fill="none" xmlns="http://www.w3.org/2000/svg">
<path d="M73.56 15.7599H67.36V20.2999H73.3V22.0599H67.36V27.9999H65.5V13.9999H73.56V15.7599ZM84.0725 26.7399C83.0458 27.7533 81.7992 28.2599 80.3325 28.2599C78.8658 28.2599 77.6192 27.7533 76.5925 26.7399C75.5792 25.7266 75.0725 24.4799 75.0725 22.9999C75.0725 21.5199 75.5792 20.2733 76.5925 19.2599C77.6192 18.2466 78.8658 17.7399 80.3325 17.7399C81.7992 17.7399 83.0458 18.2466 84.0725 19.2599C85.0992 20.2733 85.6125 21.5199 85.6125 22.9999C85.6125 24.4799 85.0992 25.7266 84.0725 26.7399ZM80.3325 26.5599C81.3325 26.5599 82.1725 26.2199 82.8525 25.5399C83.5325 24.8599 83.8725 24.0133 83.8725 22.9999C83.8725 21.9866 83.5325 21.1399 82.8525 20.4599C82.1725 19.7799 81.3325 19.4399 80.3325 19.4399C79.3458 19.4399 78.5125 19.7799 77.8325 20.4599C77.1525 21.1399 76.8125 21.9866 76.8125 22.9999C76.8125 24.0133 77.1525 24.8599 77.8325 25.5399C78.5125 26.2199 79.3458 26.5599 80.3325 26.5599ZM92.6438 17.7399C93.8171 17.7399 94.7571 18.1133 95.4638 18.8599C96.1704 19.5933 96.5238 20.5933 96.5238 21.8599V27.9999H94.7838V21.9599C94.7838 21.1466 94.5638 20.5199 94.1238 20.0799C93.6838 19.6266 93.0771 19.3999 92.3038 19.3999C91.4371 19.3999 90.7371 19.6733 90.2038 20.2199C89.6704 20.7533 89.4038 21.5799 89.4038 22.6999V27.9999H87.6637V17.9999H89.4038V19.4399C90.1104 18.3066 91.1904 17.7399 92.6438 17.7399ZM107.233 13.9999H108.973V27.9999H107.233V26.2799C106.366 27.5999 105.106 28.2599 103.453 28.2599C102.053 28.2599 100.859 27.7533 99.8728 26.7399C98.8861 25.7133 98.3928 24.4666 98.3928 22.9999C98.3928 21.5333 98.8861 20.2933 99.8728 19.2799C100.859 18.2533 102.053 17.7399 103.453 17.7399C105.106 17.7399 106.366 18.3999 107.233 19.7199V13.9999ZM103.673 26.5799C104.686 26.5799 105.533 26.2399 106.213 25.5599C106.893 24.8666 107.233 24.0133 107.233 22.9999C107.233 21.9866 106.893 21.1399 106.213 20.4599C105.533 19.7666 104.686 19.4199 103.673 19.4199C102.673 19.4199 101.833 19.7666 101.153 20.4599C100.473 21.1399 100.133 21.9866 100.133 22.9999C100.133 24.0133 100.473 24.8666 101.153 25.5599C101.833 26.2399 102.673 26.5799 103.673 26.5799Z" fill="white"/>
<path d="M122.349 17.7599C123.469 17.7599 124.369 18.1199 125.049 18.8399C125.742 19.5599 126.089 20.5333 126.089 21.7599V27.9999H124.769V21.7599C124.769 20.8933 124.542 20.2266 124.089 19.7599C123.649 19.2799 123.062 19.0399 122.329 19.0399C121.502 19.0399 120.829 19.3199 120.309 19.8799C119.802 20.4266 119.549 21.2866 119.549 22.4599V27.9999H118.229V21.7599C118.229 20.8799 118.016 20.2066 117.589 19.7399C117.176 19.2733 116.609 19.0399 115.889 19.0399C115.089 19.0399 114.409 19.3199 113.849 19.8799C113.289 20.4399 113.009 21.2999 113.009 22.4599V27.9999H111.689V17.9999H113.009V19.4599C113.729 18.3266 114.749 17.7599 116.069 17.7599C117.509 17.7599 118.522 18.3666 119.109 19.5799C119.829 18.3666 120.909 17.7599 122.349 17.7599ZM137.242 17.9999H138.562V27.9999H137.242V26.0399C136.322 27.5066 134.976 28.2399 133.202 28.2399C131.776 28.2399 130.556 27.7333 129.542 26.7199C128.542 25.7066 128.042 24.4666 128.042 22.9999C128.042 21.5333 128.542 20.2933 129.542 19.2799C130.556 18.2666 131.776 17.7599 133.202 17.7599C134.976 17.7599 136.322 18.4933 137.242 19.9599V17.9999ZM130.502 25.8199C131.262 26.5799 132.196 26.9599 133.302 26.9599C134.409 26.9599 135.342 26.5799 136.102 25.8199C136.862 25.0466 137.242 24.1066 137.242 22.9999C137.242 21.8933 136.862 20.9599 136.102 20.1999C135.342 19.4266 134.409 19.0399 133.302 19.0399C132.196 19.0399 131.262 19.4266 130.502 20.1999C129.742 20.9599 129.362 21.8933 129.362 22.9999C129.362 24.1066 129.742 25.0466 130.502 25.8199ZM149.437 27.9999H147.677L142.677 23.1799V27.9999H141.357V13.9999H142.677V22.4199L147.437 17.9999H149.237L144.077 22.7999L149.437 27.9999ZM154.864 17.7599C156.344 17.7599 157.537 18.2866 158.444 19.3399C159.364 20.3799 159.824 21.6133 159.824 23.0399C159.824 23.1866 159.81 23.3933 159.784 23.6599H151.004C151.137 24.6733 151.564 25.4799 152.284 26.0799C153.017 26.6666 153.917 26.9599 154.984 26.9599C155.744 26.9599 156.397 26.8066 156.944 26.4999C157.504 26.1799 157.924 25.7666 158.204 25.2599L159.364 25.9399C158.924 26.6466 158.324 27.2066 157.564 27.6199C156.804 28.0333 155.937 28.2399 154.964 28.2399C153.39 28.2399 152.11 27.7466 151.124 26.7599C150.137 25.7733 149.644 24.5199 149.644 22.9999C149.644 21.5066 150.13 20.2599 151.104 19.2599C152.077 18.2599 153.33 17.7599 154.864 17.7599ZM154.864 19.0399C153.824 19.0399 152.95 19.3533 152.244 19.9799C151.55 20.5933 151.137 21.3933 151.004 22.3799H158.464C158.33 21.3266 157.924 20.5066 157.244 19.9199C156.564 19.3333 155.77 19.0399 154.864 19.0399ZM163.243 19.6599C163.857 18.4466 164.91 17.8399 166.403 17.8399V19.1199C165.497 19.1199 164.743 19.3866 164.143 19.9199C163.543 20.4533 163.243 21.2933 163.243 22.4399V27.9999H161.923V17.9999H163.243V19.6599Z" fill="#686594"/>
<g filter="url(#filter0_d)">
<rect x="25" y="19.1666" width="10" height="10" rx="1" fill="url(#paint0_linear)"/>
</g>
<g filter="url(#filter1_d)">
<circle cx="35.625" cy="17.2914" r="4.375" stroke="white"/>
</g>
<defs>
<filter id="filter0_d" x="0" y="0.166626" width="60" height="60" filterUnits="userSpaceOnUse" color-interpolation-filters="sRGB">
<feFlood flood-opacity="0" result="BackgroundImageFix"/>
<feColorMatrix in="SourceAlpha" type="matrix" values="0 0 0 0 0 0 0 0 0 0 0 0 0 0 0 0 0 0 127 0"/>
<feOffset dy="6"/>
<feGaussianBlur stdDeviation="12.5"/>
<feColorMatrix type="matrix" values="0 0 0 0 0.602048 0 0 0 0 0.949963 0 0 0 0 0.930168 0 0 0 0.355129 0"/>
<feBlend mode="normal" in2="BackgroundImageFix" result="effect1_dropShadow"/>
<feBlend mode="normal" in="SourceGraphic" in2="effect1_dropShadow" result="shape"/>
</filter>
<filter id="filter1_d" x="21.75" y="9.41644" width="27.75" height="27.75" filterUnits="userSpaceOnUse" color-interpolation-filters="sRGB">
<feFlood flood-opacity="0" result="BackgroundImageFix"/>
<feColorMatrix in="SourceAlpha" type="matrix" values="0 0 0 0 0 0 0 0 0 0 0 0 0 0 0 0 0 0 127 0"/>
<feOffset dy="6"/>
<feGaussianBlur stdDeviation="4.5"/>
<feColorMatrix type="matrix" values="0 0 0 0 0.0944005 0 0 0 0 0.0811398 0 0 0 0 0.223693 0 0 0 1 0"/>
<feBlend mode="normal" in2="BackgroundImageFix" result="effect1_dropShadow"/>
<feBlend mode="normal" in="SourceGraphic" in2="effect1_dropShadow" result="shape"/>
</filter>
<linearGradient id="paint0_linear" x1="31.25" y1="17.2916" x2="25" y2="30.4166" gradientUnits="userSpaceOnUse">
<stop stop-color="#86E3FF"/>
<stop offset="1" stop-color="#23EAA4"/>
</linearGradient>
</defs>
</svg>
