<svg width="134" height="92" viewBox="0 0 134 92" fill="none" xmlns="http://www.w3.org/2000/svg">
<path d="M12.428 69.0881H4.368V74.9901H12.09V77.2781H4.368V85.0001H1.95V66.8001H12.428V69.0881ZM26.0943 83.3621C24.7596 84.6795 23.1389 85.3381 21.2323 85.3381C19.3256 85.3381 17.7049 84.6795 16.3703 83.3621C15.0529 82.0448 14.3943 80.4241 14.3943 78.5001C14.3943 76.5761 15.0529 74.9555 16.3703 73.6381C17.7049 72.3208 19.3256 71.6621 21.2323 71.6621C23.1389 71.6621 24.7596 72.3208 26.0943 73.6381C27.4289 74.9555 28.0962 76.5761 28.0962 78.5001C28.0962 80.4241 27.4289 82.0448 26.0943 83.3621ZM21.2323 83.1281C22.5323 83.1281 23.6243 82.6861 24.5083 81.8021C25.3923 80.9181 25.8343 79.8175 25.8343 78.5001C25.8343 77.1828 25.3923 76.0821 24.5083 75.1981C23.6243 74.3141 22.5323 73.8721 21.2323 73.8721C19.9496 73.8721 18.8663 74.3141 17.9823 75.1981C17.0983 76.0821 16.6562 77.1828 16.6562 78.5001C16.6562 79.8175 17.0983 80.9181 17.9823 81.8021C18.8663 82.6861 19.9496 83.1281 21.2323 83.1281ZM37.2369 71.6621C38.7622 71.6621 39.9842 72.1475 40.9029 73.1181C41.8215 74.0715 42.2809 75.3715 42.2809 77.0181V85.0001H40.0189V77.1481C40.0189 76.0908 39.7329 75.2761 39.1609 74.7041C38.5889 74.1148 37.8002 73.8201 36.7949 73.8201C35.6682 73.8201 34.7582 74.1755 34.0649 74.8861C33.3715 75.5795 33.0249 76.6541 33.0249 78.1101V85.0001H30.7629V72.0001H33.0249V73.8721C33.9435 72.3988 35.3475 71.6621 37.2369 71.6621ZM56.2027 66.8001H58.4647V85.0001H56.2027V82.7641C55.076 84.4801 53.438 85.3381 51.2887 85.3381C49.4687 85.3381 47.9173 84.6795 46.6347 83.3621C45.352 82.0275 44.7107 80.4068 44.7107 78.5001C44.7107 76.5935 45.352 74.9815 46.6347 73.6641C47.9173 72.3295 49.4687 71.6621 51.2887 71.6621C53.438 71.6621 55.076 72.5201 56.2027 74.2361V66.8001ZM51.5747 83.1541C52.892 83.1541 53.9927 82.7121 54.8767 81.8281C55.7607 80.9268 56.2027 79.8175 56.2027 78.5001C56.2027 77.1828 55.7607 76.0821 54.8767 75.1981C53.9927 74.2968 52.892 73.8461 51.5747 73.8461C50.2747 73.8461 49.1827 74.2968 48.2987 75.1981C47.4147 76.0821 46.9727 77.1828 46.9727 78.5001C46.9727 79.8175 47.4147 80.9268 48.2987 81.8281C49.1827 82.7121 50.2747 83.1541 51.5747 83.1541Z" fill="white"/>
<path d="M75.8538 71.6881C77.3098 71.6881 78.4798 72.1561 79.3638 73.0921C80.2651 74.0281 80.7158 75.2935 80.7158 76.8881V85.0001H78.9998V76.8881C78.9998 75.7615 78.7051 74.8948 78.1158 74.2881C77.5438 73.6641 76.7811 73.3521 75.8278 73.3521C74.7531 73.3521 73.8778 73.7161 73.2018 74.4441C72.5431 75.1548 72.2138 76.2728 72.2138 77.7981V85.0001H70.4978V76.8881C70.4978 75.7441 70.2204 74.8688 69.6658 74.2621C69.1284 73.6555 68.3918 73.3521 67.4558 73.3521C66.4158 73.3521 65.5318 73.7161 64.8038 74.4441C64.0758 75.1721 63.7118 76.2901 63.7118 77.7981V85.0001H61.9958V72.0001H63.7118V73.8981C64.6478 72.4248 65.9738 71.6881 67.6898 71.6881C69.5618 71.6881 70.8791 72.4768 71.6418 74.0541C72.5778 72.4768 73.9818 71.6881 75.8538 71.6881ZM95.2148 72.0001H96.9308V85.0001H95.2148V82.4521C94.0188 84.3588 92.2682 85.3121 89.9628 85.3121C88.1082 85.3121 86.5222 84.6535 85.2048 83.3361C83.9048 82.0188 83.2548 80.4068 83.2548 78.5001C83.2548 76.5935 83.9048 74.9815 85.2048 73.6641C86.5222 72.3468 88.1082 71.6881 89.9628 71.6881C92.2682 71.6881 94.0188 72.6415 95.2148 74.5481V72.0001ZM86.4528 82.1661C87.4408 83.1541 88.6542 83.6481 90.0928 83.6481C91.5315 83.6481 92.7448 83.1541 93.7328 82.1661C94.7208 81.1608 95.2148 79.9388 95.2148 78.5001C95.2148 77.0615 94.7208 75.8481 93.7328 74.8601C92.7448 73.8548 91.5315 73.3521 90.0928 73.3521C88.6542 73.3521 87.4408 73.8548 86.4528 74.8601C85.4648 75.8481 84.9708 77.0615 84.9708 78.5001C84.9708 79.9388 85.4648 81.1608 86.4528 82.1661ZM111.068 85.0001H108.78L102.28 78.7341V85.0001H100.564V66.8001H102.28V77.7461L108.468 72.0001H110.808L104.1 78.2401L111.068 85.0001ZM118.123 71.6881C120.047 71.6881 121.598 72.3728 122.777 73.7421C123.973 75.0941 124.571 76.6975 124.571 78.5521C124.571 78.7428 124.554 79.0115 124.519 79.3581H113.105C113.278 80.6755 113.833 81.7241 114.769 82.5041C115.722 83.2668 116.892 83.6481 118.279 83.6481C119.267 83.6481 120.116 83.4488 120.827 83.0501C121.555 82.6341 122.101 82.0968 122.465 81.4381L123.973 82.3221C123.401 83.2408 122.621 83.9688 121.633 84.5061C120.645 85.0435 119.518 85.3121 118.253 85.3121C116.208 85.3121 114.544 84.6708 113.261 83.3881C111.978 82.1055 111.337 80.4761 111.337 78.5001C111.337 76.5588 111.97 74.9381 113.235 73.6381C114.5 72.3381 116.13 71.6881 118.123 71.6881ZM118.123 73.3521C116.771 73.3521 115.636 73.7595 114.717 74.5741C113.816 75.3715 113.278 76.4115 113.105 77.6941H122.803C122.63 76.3248 122.101 75.2588 121.217 74.4961C120.333 73.7335 119.302 73.3521 118.123 73.3521ZM129.016 74.1581C129.814 72.5808 131.183 71.7921 133.124 71.7921V73.4561C131.946 73.4561 130.966 73.8028 130.186 74.4961C129.406 75.1895 129.016 76.2815 129.016 77.7721V85.0001H127.3V72.0001H129.016V74.1581Z" fill="#686594"/>
<g filter="url(#filter0_d)">
<rect x="50" y="19.795" width="22.2049" height="22.2049" rx="1" fill="url(#paint0_linear)"/>
</g>
<g filter="url(#filter1_d)">
<circle cx="73.5928" cy="15.6316" r="9.71465" stroke="white"/>
</g>
<defs>
<filter id="filter0_d" x="25" y="0.795044" width="72.2049" height="72.2049" filterUnits="userSpaceOnUse" color-interpolation-filters="sRGB">
<feFlood flood-opacity="0" result="BackgroundImageFix"/>
<feColorMatrix in="SourceAlpha" type="matrix" values="0 0 0 0 0 0 0 0 0 0 0 0 0 0 0 0 0 0 127 0"/>
<feOffset dy="6"/>
<feGaussianBlur stdDeviation="12.5"/>
<feColorMatrix type="matrix" values="0 0 0 0 0.602048 0 0 0 0 0.949963 0 0 0 0 0.930168 0 0 0 0.355129 0"/>
<feBlend mode="normal" in2="BackgroundImageFix" result="effect1_dropShadow"/>
<feBlend mode="normal" in="SourceGraphic" in2="effect1_dropShadow" result="shape"/>
</filter>
<filter id="filter1_d" x="54.3782" y="2.41699" width="38.4293" height="38.4293" filterUnits="userSpaceOnUse" color-interpolation-filters="sRGB">
<feFlood flood-opacity="0" result="BackgroundImageFix"/>
<feColorMatrix in="SourceAlpha" type="matrix" values="0 0 0 0 0 0 0 0 0 0 0 0 0 0 0 0 0 0 127 0"/>
<feOffset dy="6"/>
<feGaussianBlur stdDeviation="4.5"/>
<feColorMatrix type="matrix" values="0 0 0 0 0.0944005 0 0 0 0 0.0811398 0 0 0 0 0.223693 0 0 0 1 0"/>
<feBlend mode="normal" in2="BackgroundImageFix" result="effect1_dropShadow"/>
<feBlend mode="normal" in="SourceGraphic" in2="effect1_dropShadow" result="shape"/>
</filter>
<linearGradient id="paint0_linear" x1="63.8781" y1="15.6316" x2="50" y2="44.7756" gradientUnits="userSpaceOnUse">
<stop stop-color="#86E3FF"/>
<stop offset="1" stop-color="#23EAA4"/>
</linearGradient>
</defs>
</svg>
