<svg width="37" height="38" viewBox="0 0 37 38" fill="none" xmlns="http://www.w3.org/2000/svg">
<circle cx="18.5" cy="19.3174" r="18" stroke="url(#paint0_linear)"/>
<path d="M24.4543 14.7382C23.949 14.0675 23.0159 13.7939 21.234 13.7939H14.7658C12.9432 13.7939 11.9943 14.0852 11.4909 14.7992C11 15.4954 11 16.5212 11 17.941V20.647C11 23.3975 11.5824 24.7939 14.7658 24.7939H21.2341C22.7793 24.7939 23.6356 24.5525 24.1895 23.9606C24.7576 23.3537 25 22.3627 25 20.647V17.941C25 16.4437 24.962 15.4119 24.4543 14.7382ZM19.988 19.6676L17.0508 21.3814C16.9852 21.4197 16.9134 21.4387 16.8417 21.4387C16.7605 21.4387 16.6794 21.4143 16.6077 21.3658C16.4726 21.2744 16.39 21.1109 16.39 20.9345V17.5178C16.39 17.3418 16.4723 17.1784 16.6072 17.0869C16.7421 16.9955 16.9099 16.9892 17.0498 17.0704L19.987 18.7732C20.1364 18.8598 20.2303 19.0321 20.2305 19.22C20.2307 19.408 20.1373 19.5805 19.988 19.6676Z" fill="url(#paint1_linear)"/>
<defs>
<linearGradient id="paint0_linear" x1="18.5" y1="0.817383" x2="18.5" y2="37.8174" gradientUnits="userSpaceOnUse">
<stop stop-color="#34E3B1"/>
<stop offset="1" stop-color="#71C9DF"/>
</linearGradient>
<linearGradient id="paint1_linear" x1="18" y1="13.7939" x2="18" y2="24.7939" gradientUnits="userSpaceOnUse">
<stop stop-color="#34E3B1"/>
<stop offset="1" stop-color="#71C9DF"/>
</linearGradient>
</defs>
</svg>
