<svg width="38" height="38" viewBox="0 0 38 38" fill="none" xmlns="http://www.w3.org/2000/svg">
<circle cx="18.6143" cy="19.3174" r="18" stroke="url(#paint0_linear)"/>
<path d="M17.1011 21.2497L16.886 24.3209C17.1937 24.3209 17.327 24.1867 17.4868 24.0256L18.9293 22.6258L21.9183 24.8484C22.4664 25.1586 22.8526 24.9952 23.0005 24.3363L24.9625 15.0018L24.963 15.0012C25.1369 14.1784 24.67 13.8567 24.1359 14.0585L12.6035 18.5415C11.8165 18.8517 11.8284 19.2972 12.4697 19.4991L15.4181 20.4302L22.2666 16.0792C22.5889 15.8625 22.8819 15.9824 22.6409 16.1991L17.1011 21.2497Z" fill="url(#paint1_linear)"/>
<defs>
<linearGradient id="paint0_linear" x1="18.6143" y1="0.817383" x2="18.6143" y2="37.8174" gradientUnits="userSpaceOnUse">
<stop stop-color="#34E3B1"/>
<stop offset="1" stop-color="#71C9DF"/>
</linearGradient>
<linearGradient id="paint1_linear" x1="18.5" y1="14" x2="18.5" y2="25" gradientUnits="userSpaceOnUse">
<stop stop-color="#34E3B1"/>
<stop offset="1" stop-color="#71C9DF"/>
</linearGradient>
</defs>
</svg>
