<svg width="38" height="37" viewBox="0 0 38 37" fill="none" xmlns="http://www.w3.org/2000/svg">
<circle cx="18.7285" cy="18.5" r="18" stroke="url(#paint0_linear)"/>
<path d="M25.5599 14.0786C25.0433 14.3052 24.4929 14.4554 23.919 14.5283C24.5093 14.1759 24.96 13.6219 25.1718 12.9543C24.6213 13.2825 24.0136 13.5143 23.3659 13.6436C22.8432 13.0871 22.0983 12.7424 21.2857 12.7424C19.709 12.7424 18.4397 14.0222 18.4397 15.591C18.4397 15.8168 18.4588 16.0338 18.5056 16.2405C16.138 16.125 14.043 14.9902 12.6356 13.2616C12.3899 13.6879 12.2458 14.1759 12.2458 14.7011C12.2458 15.6874 12.7537 16.5617 13.5108 17.0679C13.0533 17.0592 12.6044 16.9264 12.2241 16.7171C12.2241 16.7258 12.2241 16.7371 12.2241 16.7484C12.2241 18.1323 13.2113 19.2818 14.5058 19.5466C14.274 19.61 14.0213 19.6404 13.7591 19.6404C13.5768 19.6404 13.3927 19.63 13.22 19.5918C13.5889 20.7196 14.636 21.5487 15.881 21.5756C14.9121 22.3336 13.6818 22.7903 12.35 22.7903C12.1165 22.7903 11.8925 22.7799 11.6685 22.7512C12.93 23.5647 14.425 24.0292 16.0373 24.0292C21.2779 24.0292 24.143 19.6881 24.143 15.9253C24.143 15.7994 24.1386 15.6779 24.1325 15.5572C24.6978 15.1561 25.1727 14.6551 25.5599 14.0786Z" fill="url(#paint1_linear)"/>
<defs>
<linearGradient id="paint0_linear" x1="18.7285" y1="0" x2="18.7285" y2="37" gradientUnits="userSpaceOnUse">
<stop stop-color="#34E3B1"/>
<stop offset="1" stop-color="#71C9DF"/>
</linearGradient>
<linearGradient id="paint1_linear" x1="18.6142" y1="12.7424" x2="18.6142" y2="24.0292" gradientUnits="userSpaceOnUse">
<stop stop-color="#34E3B1"/>
<stop offset="1" stop-color="#71C9DF"/>
</linearGradient>
</defs>
</svg>
