<svg width="26" height="26" viewBox="0 0 26 26" fill="none" xmlns="http://www.w3.org/2000/svg">
<g clip-path="url(#clip0)">
<path d="M13.0009 25.9998C20.1805 25.9998 26.0007 20.1795 26.0007 12.9999C26.0007 5.82025 20.1805 0 13.0009 0C5.82122 0 0.000976562 5.82025 0.000976562 12.9999C0.000976562 20.1795 5.82122 25.9998 13.0009 25.9998Z" fill="#55ACEE"/>
<path d="M20.9631 9.34268C20.406 9.58971 19.8068 9.75679 19.1783 9.83141C19.82 9.44696 20.3124 8.83866 20.5448 8.11263C19.9444 8.46881 19.2791 8.72719 18.5716 8.86646C18.0048 8.26279 17.1972 7.88553 16.3029 7.88553C14.5872 7.88553 13.1956 9.2771 13.1956 10.9929C13.1956 11.2364 13.2232 11.4735 13.2765 11.7011C10.694 11.5715 8.40424 10.3345 6.87155 8.45398C6.60412 8.91281 6.45072 9.44696 6.45072 10.0163C6.45072 11.0941 6.9997 12.0456 7.83302 12.6027C7.32389 12.5867 6.84443 12.447 6.42569 12.2136C6.42546 12.2269 6.42546 12.2401 6.42546 12.253C6.42546 13.7586 7.497 15.0144 8.91823 15.2997C8.65776 15.371 8.38269 15.4088 8.09974 15.4088C7.89906 15.4088 7.70463 15.3896 7.51507 15.3534C7.91042 16.5877 9.05774 17.4861 10.4178 17.5113C9.35413 18.3449 8.01446 18.8415 6.55824 18.8415C6.30797 18.8415 6.06001 18.8269 5.81738 18.7979C7.1918 19.6799 8.82554 20.1941 10.5802 20.1941C16.2958 20.1941 19.4214 15.4593 19.4214 11.3528C19.4214 11.2181 19.4184 11.0839 19.4124 10.9509C20.02 10.5129 20.5467 9.96582 20.9631 9.34268Z" fill="#F1F2F2"/>
</g>
<defs>
<clipPath id="clip0">
<rect width="26" height="26" fill="white"/>
</clipPath>
</defs>
</svg>
