<svg width="14" height="14" viewBox="0 0 14 14" fill="none" xmlns="http://www.w3.org/2000/svg">
<g clip-path="url(#clip0)">
<path d="M7 1.75045C3.7655 1.75045 1.02128 3.94388 0 7.00046C1.02128 10.057 3.7655 12.2505 7 12.2505C10.2345 12.2505 12.9787 10.057 14 7.00046C12.9787 3.94388 10.2345 1.75045 7 1.75045ZM7 10.5005C5.06699 10.5005 3.5 8.93345 3.5 7.00046C3.5 5.06745 5.06699 3.50046 7 3.50046C8.93301 3.50046 10.5 5.06745 10.5 7.00046C10.5 8.93342 8.93301 10.5005 7 10.5005Z" fill="#C3C0F5"/>
<path d="M8.23741 5.76282C8.92082 6.44623 8.92082 7.55426 8.23741 8.23767C7.554 8.92108 6.44597 8.92108 5.76256 8.23767C5.07915 7.55426 5.07915 6.44623 5.76256 5.76282C6.44597 5.07941 7.554 5.07941 8.23741 5.76282Z" fill="#C3C0F5"/>
</g>
<defs>
<clipPath id="clip0">
<rect width="14" height="14" fill="white"/>
</clipPath>
</defs>
</svg>
